<mxfile host="app.diagrams.net" modified="2023-01-04T21:59:37.106Z" agent="5.0 (Windows NT 10.0; Win64; x64) AppleWebKit/537.36 (KHTML, like Gecko) Chrome/108.0.0.0 Safari/537.36" version="20.8.1" etag="xPpM5jMzVHUX_E8FW4PD" type="github">
  <diagram id="9640ljyv6-rQkLGsLeY_" name="Página-1">
    <mxGraphModel dx="1050" dy="541" grid="1" gridSize="10" guides="1" tooltips="1" connect="1" arrows="1" fold="1" page="1" pageScale="1" pageWidth="827" pageHeight="1169" math="0" shadow="0">
      <root>
        <mxCell id="0" />
        <mxCell id="1" parent="0" />
        <mxCell id="jknOkVFnK5s7cCAORl80-10" style="edgeStyle=orthogonalEdgeStyle;rounded=0;orthogonalLoop=1;jettySize=auto;html=1;" edge="1" parent="1" source="jknOkVFnK5s7cCAORl80-1" target="jknOkVFnK5s7cCAORl80-4">
          <mxGeometry relative="1" as="geometry" />
        </mxCell>
        <mxCell id="jknOkVFnK5s7cCAORl80-1" value="INICÍO" style="rounded=0;whiteSpace=wrap;html=1;fillColor=#d5e8d4;strokeColor=#82b366;" vertex="1" parent="1">
          <mxGeometry x="30" y="40" width="120" height="60" as="geometry" />
        </mxCell>
        <mxCell id="jknOkVFnK5s7cCAORl80-12" value="" style="edgeStyle=orthogonalEdgeStyle;rounded=0;orthogonalLoop=1;jettySize=auto;html=1;" edge="1" parent="1" source="jknOkVFnK5s7cCAORl80-4" target="jknOkVFnK5s7cCAORl80-11">
          <mxGeometry relative="1" as="geometry" />
        </mxCell>
        <mxCell id="jknOkVFnK5s7cCAORl80-4" value="Leve ao fogo uma penal com água e deixe ferver." style="whiteSpace=wrap;html=1;fillColor=#fff2cc;strokeColor=#d6b656;rounded=0;" vertex="1" parent="1">
          <mxGeometry x="30" y="120" width="120" height="60" as="geometry" />
        </mxCell>
        <mxCell id="jknOkVFnK5s7cCAORl80-14" value="" style="edgeStyle=orthogonalEdgeStyle;rounded=0;orthogonalLoop=1;jettySize=auto;html=1;" edge="1" parent="1" source="jknOkVFnK5s7cCAORl80-11" target="jknOkVFnK5s7cCAORl80-13">
          <mxGeometry relative="1" as="geometry" />
        </mxCell>
        <mxCell id="jknOkVFnK5s7cCAORl80-11" value="Após a água ferver, insira o macarrão e aguarde cozinhar por 3 minutos.&amp;nbsp;" style="whiteSpace=wrap;html=1;fillColor=#fff2cc;strokeColor=#d6b656;rounded=0;" vertex="1" parent="1">
          <mxGeometry x="30" y="200" width="120" height="60" as="geometry" />
        </mxCell>
        <mxCell id="jknOkVFnK5s7cCAORl80-21" style="edgeStyle=orthogonalEdgeStyle;rounded=0;orthogonalLoop=1;jettySize=auto;html=1;exitX=1;exitY=0.5;exitDx=0;exitDy=0;" edge="1" parent="1" source="jknOkVFnK5s7cCAORl80-13" target="jknOkVFnK5s7cCAORl80-18">
          <mxGeometry relative="1" as="geometry" />
        </mxCell>
        <mxCell id="jknOkVFnK5s7cCAORl80-23" style="edgeStyle=orthogonalEdgeStyle;rounded=0;orthogonalLoop=1;jettySize=auto;html=1;" edge="1" parent="1" source="jknOkVFnK5s7cCAORl80-13" target="jknOkVFnK5s7cCAORl80-19">
          <mxGeometry relative="1" as="geometry" />
        </mxCell>
        <mxCell id="jknOkVFnK5s7cCAORl80-13" value="Escorre a água?" style="rhombus;whiteSpace=wrap;html=1;fillColor=#ffe6cc;strokeColor=#d79b00;rounded=0;" vertex="1" parent="1">
          <mxGeometry x="190" y="182.5" width="110" height="95" as="geometry" />
        </mxCell>
        <mxCell id="jknOkVFnK5s7cCAORl80-25" value="" style="edgeStyle=orthogonalEdgeStyle;rounded=0;orthogonalLoop=1;jettySize=auto;html=1;" edge="1" parent="1" source="jknOkVFnK5s7cCAORl80-18" target="jknOkVFnK5s7cCAORl80-24">
          <mxGeometry relative="1" as="geometry" />
        </mxCell>
        <mxCell id="jknOkVFnK5s7cCAORl80-18" value="SIM" style="text;html=1;strokeColor=none;fillColor=none;align=center;verticalAlign=middle;whiteSpace=wrap;rounded=0;" vertex="1" parent="1">
          <mxGeometry x="340" y="170" width="60" height="30" as="geometry" />
        </mxCell>
        <mxCell id="jknOkVFnK5s7cCAORl80-27" value="" style="edgeStyle=orthogonalEdgeStyle;rounded=0;orthogonalLoop=1;jettySize=auto;html=1;" edge="1" parent="1" source="jknOkVFnK5s7cCAORl80-19" target="jknOkVFnK5s7cCAORl80-26">
          <mxGeometry relative="1" as="geometry" />
        </mxCell>
        <mxCell id="jknOkVFnK5s7cCAORl80-19" value="NÃO" style="text;html=1;strokeColor=none;fillColor=none;align=center;verticalAlign=middle;whiteSpace=wrap;rounded=0;" vertex="1" parent="1">
          <mxGeometry x="340" y="247.5" width="60" height="30" as="geometry" />
        </mxCell>
        <mxCell id="jknOkVFnK5s7cCAORl80-29" value="" style="edgeStyle=orthogonalEdgeStyle;rounded=0;orthogonalLoop=1;jettySize=auto;html=1;" edge="1" parent="1" source="jknOkVFnK5s7cCAORl80-24" target="jknOkVFnK5s7cCAORl80-28">
          <mxGeometry relative="1" as="geometry" />
        </mxCell>
        <mxCell id="jknOkVFnK5s7cCAORl80-24" value="Coloque o tempero em pó." style="whiteSpace=wrap;html=1;fillColor=#fff2cc;strokeColor=#d6b656;" vertex="1" parent="1">
          <mxGeometry x="450" y="155" width="120" height="60" as="geometry" />
        </mxCell>
        <mxCell id="jknOkVFnK5s7cCAORl80-31" value="" style="edgeStyle=orthogonalEdgeStyle;rounded=0;orthogonalLoop=1;jettySize=auto;html=1;" edge="1" parent="1" source="jknOkVFnK5s7cCAORl80-26" target="jknOkVFnK5s7cCAORl80-30">
          <mxGeometry relative="1" as="geometry" />
        </mxCell>
        <mxCell id="jknOkVFnK5s7cCAORl80-26" value="Coloque o tempero em pó." style="whiteSpace=wrap;html=1;fillColor=#fff2cc;strokeColor=#d6b656;" vertex="1" parent="1">
          <mxGeometry x="450" y="232.5" width="120" height="60" as="geometry" />
        </mxCell>
        <mxCell id="jknOkVFnK5s7cCAORl80-28" value="Sirva em um prato raso com garfo." style="whiteSpace=wrap;html=1;fillColor=#fff2cc;strokeColor=#d6b656;" vertex="1" parent="1">
          <mxGeometry x="650" y="155" width="120" height="60" as="geometry" />
        </mxCell>
        <mxCell id="jknOkVFnK5s7cCAORl80-30" value="Sirva em um prato fundo com colher." style="whiteSpace=wrap;html=1;fillColor=#fff2cc;strokeColor=#d6b656;" vertex="1" parent="1">
          <mxGeometry x="650" y="232.5" width="120" height="60" as="geometry" />
        </mxCell>
      </root>
    </mxGraphModel>
  </diagram>
</mxfile>
